<?xml version="1.0" encoding="UTF-8" standalone="no"?>
<!-- Created with Inkscape (http://www.inkscape.org/) -->

<svg
   xmlns="http://www.w3.org/2000/svg"
   width="32" height="32"
   viewBox="0 0 132.29166 132.29167" version="1.1"
   >
   <g transform="translate(0,-164.70832)">
      <path fill="white"
         d="M 47.894531 104.18164 C 31.603551 104.18164 18.488281 117.29691 18.488281 133.58789 L 18.488281 276.93164 C 18.488281 293.22262 31.603551 306.33789 47.894531 306.33789 L 452.10547 306.33789 C 468.39645 306.33789 481.51172 293.22262 481.51172 276.93164 L 481.51172 133.58789 C 481.51172 117.29691 468.39645 104.18164 452.10547 104.18164 L 47.894531 104.18164 z M 250 141.11523 L 324.75195 207.20312 L 298.48828 207.20312 L 298.48828 269.4043 L 201.51367 269.4043 L 201.51367 207.20312 L 175.24805 207.20312 L 250 141.11523 z M 243.93945 219.07812 L 243.93945 243.27148 L 285.35547 243.27148 L 285.35547 219.07812 L 243.93945 219.07812 z "
         transform="matrix(0.26458333,0,0,0.26458333,0,164.70832)" id="rect5066" />
      <g aria-label="HOME">
         <path
            d="m 22.696138,269.43533 v -17.07111 h 5.173065 v 6.59566 h 7.500943 v -6.59566 h 5.173064 v 17.07111 h -5.173064 v -7.37161 h -7.500943 v 7.37161 z"
            fill="white" id="path5165" />
         <path
            d="M 44.166376,265.91765 V 255.8819 q 0,-3.51768 4.397105,-3.51768 h 9.052862 q 4.397105,0 4.397105,3.51768 v 10.03575 q 0,3.51768 -4.397105,3.51768 h -9.052862 q -4.397105,0 -4.397105,-3.51768 z m 5.173064,-0.31038 q 0,0.72422 0.905287,0.72422 h 5.69037 q 0.905287,0 0.905287,-0.72422 v -9.41498 q 0,-0.72423 -0.905287,-0.72423 h -5.69037 q -0.905287,0 -0.905287,0.72423 z"
            fill="white" id="path5167" />
         <path
            d="m 65.636614,269.43533 v -17.07111 h 6.337004 l 5.302391,11.92391 5.302391,-11.92391 h 6.337004 v 17.07111 h -5.173065 v -9.00113 l -4.009125,9.00113 h -4.914411 l -4.009125,-9.00113 v 9.00113 z"
            fill="white" id="path5169" />
         <path
            d="m 92.5123,269.43533 v -17.07111 h 16.55381 v 3.10384 H 97.685365 v 3.49182 h 10.087475 v 3.10384 H 97.685365 v 4.26777 h 11.380745 v 3.10384 z"
            fill="white" id="path5171" />
      </g>
   </g>
</svg>